# xmcd
#
# Track frame offsets:
#	183
#	12748
#	23535
#	32715
#	41055
#	52558
#	61255
#	71868
#	82000
#	92158
#	104620
#	116623
#	128423
#	139735
#	149540
#	159033
#	166438
#	177663
#	188043
#	196988
#	208543
#	218183
#	227365
#	233425
#	244808
#	255930
#	266400
#	280273
#	289445
#	300783
#
# Disc length: 4153 seconds
#
# Revision: 3
# Processed by: cddbd v1.5.2PL0 Copyright (c) Steve Scherf et al.
# Submitted via: audiograbber 1.83.01
#
DISCID=a010371e
DTITLE=Various Artist - purely..... bluegrass cd1
DYEAR=2010
DGENRE=Country
TTITLE0=The Stanley Brothers - Little Maggie  
TTITLE1=Jim Eanes - I Wouldn't Change You
TTITLE2=Connie and Joe - Home Is Where The heart Is
TTITLE3=Allen Shelton - Bending The Strings
TTITLE4=Stringbean - The Strings
TTITLE5=Buzz Busby - Me And The Juke Box
TTITLE6=The kentucky Travellers - Living My Live In Vain
TTITLE7=The Country gentlemen - Poor Ellen Smith
TTITLE8=Bill Browning - Country Strings 
TTITLE9=Jim Eanes - There'll Come A Time
TTITLE10=Buzzy Busby - Lonesome Wind
TTITLE11=The Country Gentlemen - Rollin' Stone
TTITLE12=Stringbean - Give Me Back my Five Dollars
TTITLE13=Bill Clifton - Bury Beneath The Willow
TTITLE14=The Kentucky Travelers - Will There Be A Rainbow
TTITLE15=Buzz Busby - talkin Banjo
TTITLE16=Bill Harrel - One Track Mind
TTITLE17=jim eanes - Hand On The Glass
TTITLE18=Connie and Joe - Toil, tears And Trouble
TTITLE19=Buzz Busby - Lonesome Road
TTITLE20=The Kentucky Travelllers - When You're Out Of My Arms
TTITLE21=The Kentucky Gentlemen - darlin' Allalee
TTITLE22=Billie Emmerson - banjo Wiz
TTITLE23=Bill Harrel - I'll never See You anymore
TTITLE24=The Country Gentlemen - High Lonesome
TTITLE25=Buzz busby - Where Will This End
TTITLE26=Jim Eanes - Budded Roses
TTITLE27=Ken Clark - Big Man
TTITLE28=Bill Harrel - tragic Highway
TTITLE29=The Country Gentlemen - The Hills And Home
EXTD=
EXTT0=
EXTT1=
EXTT2=
EXTT3=
EXTT4=
EXTT5=
EXTT6=
EXTT7=
EXTT8=
EXTT9=
EXTT10=
EXTT11=
EXTT12=
EXTT13=
EXTT14=
EXTT15=
EXTT16=
EXTT17=
EXTT18=
EXTT19=
EXTT20=
EXTT21=
EXTT22=
EXTT23=
EXTT24=
EXTT25=
EXTT26=
EXTT27=
EXTT28=
EXTT29=
PLAYORDER=
